<svg width="34" height="45" viewBox="0 0 34 45" fill="none" xmlns="http://www.w3.org/2000/svg">
<path d="M34 34L34 17C34 7.61117 26.3888 1.42607e-05 17 1.30295e-05C7.61117 1.17983e-05 1.10899e-05 7.61117 9.85867e-06 17L7.62939e-06 34L34 34Z" fill="#7A5AF8"/>
<path d="M7.1579 34C7.15791 28.3996 11.6979 23.8596 17.2983 23.8596C22.8986 23.8596 27.4386 28.3996 27.4386 34L7.1579 34Z" fill="#FE3278"/>
<path d="M7.1579 34C7.15791 39.6003 11.6979 44.1403 17.2983 44.1403C22.8986 44.1403 27.4386 39.6003 27.4386 34L7.1579 34Z" fill="#FCD451"/>
<path d="M17 20.2807C19.8002 20.2807 22.0702 18.0107 22.0702 15.2105C22.0702 12.4103 19.8002 10.1404 17 10.1404C14.1998 10.1404 11.9298 12.4103 11.9298 15.2105C11.9298 18.0107 14.1998 20.2807 17 20.2807Z" fill="#FAFAFF"/>
</svg>
